<?xml version="1.0" encoding="utf-8"?>
<!-- Generator: Adobe Illustrator 26.2.1, SVG Export Plug-In . SVG Version: 6.00 Build 0)  -->
<svg version="1.1" id="レイヤー_5" xmlns="http://www.w3.org/2000/svg" xmlns:xlink="http://www.w3.org/1999/xlink" x="0px"
	 y="0px" viewBox="0 0 512 512" style="enable-background:new 0 0 512 512;" xml:space="preserve">
<style type="text/css">
	.st0{fill:#FFFFFF;}
</style>
<path d="M482.01,376.33c-42.85-20.26-93.88-37.57-149.98-47.11c-2.26-0.39-13.01-2.24-13.26-8.28c-0.21-5.14,9.55-3.88,11.6-3.67
	c56.48,5.84,110.87,18.3,162.28,36.54c8.83-21.34,14.86-44.14,17.63-67.94c-34.53,5.81-70.45,5.1-70.45-3.09
	c0-9.84,39.87-17.77,72.02-35.96c-0.24-6.84-0.75-13.61-1.52-20.3c-46.54,26.09-105.92,44.39-128.69,49.55
	c-18.82,4.27-24.6-14.06-8-21.7c13.08-6.03,35.66-18.25,49.9-30.12c11.39-9.49,12.28-22.64-0.2-24.68
	c-9.79-1.6-9.19-15.48,1.6-23.38c11.91-8.72,34.49-26.85,54.44-45.34C435.52,52.76,351.92,0,256,0S76.48,52.76,32.63,130.84
	c19.94,18.49,42.53,36.62,54.44,45.34c10.79,7.9,11.39,21.78,1.6,23.38c-12.48,2.04-11.59,15.19-0.2,24.68
	c14.24,11.87,36.82,24.1,49.9,30.12c16.6,7.65,10.82,25.97-8,21.7c-22.76-5.16-82.14-23.46-128.69-49.55
	c-0.77,6.69-1.27,13.46-1.52,20.3c32.14,18.19,72.02,26.12,72.02,35.96c0,8.2-35.93,8.91-70.45,3.09
	c2.76,23.79,8.79,46.59,17.63,67.94c51.41-18.24,105.8-30.7,162.28-36.54c2.05-0.21,11.81-1.47,11.6,3.67
	c-0.25,6.04-10.99,7.9-13.26,8.28c-56.1,9.54-107.13,26.85-149.98,47.11c15.46,28.97,36.32,54.62,61.24,75.6
	C212.22,418.26,251.8,316.17,251.8,44.41h4.2h4.2c0,271.76,39.58,373.84,160.57,407.52C445.69,430.95,466.55,405.3,482.01,376.33z"
	/>
<path class="st0" d="M512,256c0,10.1-0.59,20.07-1.73,29.87c-34.53,5.81-70.45,5.1-70.45-3.09c0-9.84,39.87-17.77,72.02-35.96
	C511.94,249.86,512,252.92,512,256z M318.77,320.94c0.25,6.04,10.99,7.9,13.26,8.28c56.1,9.54,107.13,26.85,149.98,47.11
	c3.9-7.3,7.45-14.82,10.64-22.53c-51.41-18.24-105.8-30.7-162.28-36.54C328.31,317.06,318.56,315.8,318.77,320.94z M193.23,320.94
	c0.21-5.14-9.55-3.88-11.6-3.67c-56.48,5.84-110.87,18.3-162.28,36.54c3.19,7.71,6.74,15.22,10.64,22.53
	c42.85-20.26,93.88-37.57,149.98-47.11C182.24,328.84,192.98,326.98,193.23,320.94z M72.18,282.77c0-9.84-39.87-17.77-72.02-35.96
	C0.06,249.86,0,252.92,0,256c0,10.1,0.59,20.07,1.73,29.87C36.25,291.68,72.18,290.97,72.18,282.77z M260.2,44.41H256h-4.2
	c0,271.76-39.58,373.84-160.57,407.52C135.76,489.42,193.24,512,256,512c62.76,0,120.24-22.59,164.77-60.07
	C299.78,418.26,260.2,316.17,260.2,44.41z M130.37,276.06c18.82,4.27,24.6-14.06,8-21.7c-13.08-6.03-35.66-18.25-49.9-30.12
	c-11.39-9.49-12.28-22.64,0.2-24.68c9.79-1.6,9.19-15.48-1.6-23.38c-11.91-8.72-34.49-26.85-54.44-45.34
	c-16.22,28.89-27,61.24-30.95,95.67C48.22,252.59,107.61,270.9,130.37,276.06z M423.33,199.56c12.48,2.04,11.59,15.19,0.2,24.68
	c-14.24,11.87-36.82,24.1-49.9,30.12c-16.6,7.65-10.82,25.97,8,21.7c22.76-5.16,82.14-23.46,128.69-49.55
	c-3.95-34.43-14.73-66.78-30.95-95.67c-19.94,18.49-42.53,36.62-54.44,45.34C414.14,184.08,413.54,197.96,423.33,199.56z"/>
</svg>
